<?xml version="1.0" standalone="no"?>
<!DOCTYPE svg PUBLIC "-//W3C//DTD SVG 20010904//EN"
 "http://www.w3.org/TR/2001/REC-SVG-20010904/DTD/svg10.dtd">
<svg version="1.0" xmlns="http://www.w3.org/2000/svg"
 width="700.000000pt" height="700.000000pt" viewBox="0 0 700.000000 700.000000"
 preserveAspectRatio="xMidYMid meet">
<metadata>
Created by potrace 1.11, written by Peter Selinger 2001-2013
</metadata>
<g transform="translate(0.000000,700.000000) scale(0.100000,-0.100000)"
fill="#000000" stroke="none">
<path d="M0 3500 l0 -3500 3500 0 3500 0 0 3500 0 3500 -3500 0 -3500 0 0
-3500z m6970 0 l0 -3470 -3470 0 -3470 0 0 3470 0 3470 3470 0 3470 0 0 -3470z"/>
<path d="M1109 5127 c-59 -22 -96 -54 -121 -105 l-23 -47 0 -1517 0 -1516 24
-25 c37 -41 105 -52 306 -52 198 0 267 11 309 50 l26 24 0 536 0 535 228 0
c458 1 731 76 978 271 240 190 375 525 361 899 -9 250 -66 419 -195 581 -149
188 -376 302 -702 355 -143 23 -1134 32 -1191 11z m1032 -521 c176 -39 291
-150 345 -331 39 -132 14 -373 -53 -498 -40 -75 -126 -158 -203 -195 -101 -50
-178 -62 -402 -62 l-198 0 0 556 0 557 223 -6 c137 -4 247 -12 288 -21z"/>
<path d="M3837 5126 c-49 -18 -85 -51 -106 -96 -14 -32 -16 -177 -19 -1540 -2
-1036 0 -1516 8 -1541 7 -27 19 -41 44 -53 100 -47 461 -48 561 0 18 8 37 26
44 40 8 18 11 204 11 651 l0 625 158 -5 c173 -5 219 -16 309 -73 120 -76 207
-240 442 -831 84 -209 160 -388 169 -396 41 -36 92 -42 332 -42 308 0 347 11
343 99 -1 23 -11 71 -23 106 -33 98 -336 802 -393 914 -90 176 -191 294 -319
373 l-58 36 81 33 c146 60 240 124 341 233 184 199 252 527 173 838 -85 334
-353 546 -785 620 -126 22 -1258 29 -1313 9z m1067 -511 c245 -43 375 -191
376 -428 0 -156 -58 -287 -162 -365 -121 -92 -214 -112 -512 -112 l-226 0 0
460 0 460 219 0 c150 0 245 -5 305 -15z"/>
</g>
</svg>
