<svg id="Layer_1" data-name="Layer 1" xmlns="http://www.w3.org/2000/svg" width="271" height="271" viewBox="0 0 271 271">
  <defs>
    <style>
      .cls-1 {
        fill: #deb887;
        stroke: #000;
        stroke-miterlimit: 10;
      }
    </style>
  </defs>
  <rect class="cls-1" x="0.5" y="0.5" width="270" height="270"/>
  <g>
    <path d="M122.877,109.43408a49.94336,49.94336,0,0,1-3.32031,18.84766,36.35992,36.35992,0,0,1-9.66748,13.81885A42.61311,42.61311,0,0,1,94.313,150.64551a72.06947,72.06947,0,0,1-21.72852,2.92969H62.0376v40.332a2.71592,2.71592,0,0,1-.63477,1.75781,4.45309,4.45309,0,0,1-2.09961,1.26953,20.456,20.456,0,0,1-3.90625.78125,54.29066,54.29066,0,0,1-6.25.293,54.53111,54.53111,0,0,1-6.20117-.293,20.52035,20.52035,0,0,1-3.95508-.78125,4.11,4.11,0,0,1-2.05078-1.26953,2.85524,2.85524,0,0,1-.58594-1.75781V80.23486q0-4.58935,2.39258-6.88476a8.72269,8.72269,0,0,1,6.29883-2.29492H74.83057q4.49048,0,8.54492.34179a90.71114,90.71114,0,0,1,9.7168,1.46485,43.00452,43.00452,0,0,1,11.4746,4.15039,34.16116,34.16116,0,0,1,9.91211,7.666,31.96586,31.96586,0,0,1,6.24952,10.83985A42.35905,42.35905,0,0,1,122.877,109.43408Zm-26.855,1.85547a22.6919,22.6919,0,0,0-2.34375-10.9375,16.1878,16.1878,0,0,0-5.76172-6.34766,19.11242,19.11242,0,0,0-7.17773-2.58789,55.02668,55.02668,0,0,0-7.76367-.53711H62.0376v42.8711H73.561a27.85815,27.85815,0,0,0,10.30273-1.66016,17.60857,17.60857,0,0,0,6.78711-4.63867,20.09081,20.09081,0,0,0,4.00391-7.12891A28.7203,28.7203,0,0,0,96.022,111.28955Z" transform="translate(1 1)"/>
    <path d="M236.54883,194.10254a3.80813,3.80813,0,0,1-.39063,1.80664,3.118,3.118,0,0,1-1.85547,1.2207,18.47459,18.47459,0,0,1-4.29687.6836q-2.833.19482-7.71484.19531-4.10157,0-6.543-.19531a14.52458,14.52458,0,0,1-3.85742-.73243,4.17323,4.17323,0,0,1-2.002-1.36718,7.616,7.616,0,0,1-.97656-2.002L197.584,165.48926q-2.05077-4.78419-4.0039-8.4961a27.14115,27.14115,0,0,0-4.3457-6.20117,15.87443,15.87443,0,0,0-5.51758-3.75976,19.10935,19.10935,0,0,0-7.22657-1.26953h-8.00781v48.14453a2.71591,2.71591,0,0,1-.63476,1.75781,4.45068,4.45068,0,0,1-2.09961,1.26953,20.44826,20.44826,0,0,1-3.90625.78125,66.292,66.292,0,0,1-12.45117,0,20.52019,20.52019,0,0,1-3.95508-.78125,4.11,4.11,0,0,1-2.05078-1.26953,2.85518,2.85518,0,0,1-.58594-1.75781V79.16064q0-4.29637,2.19726-6.20117a7.98417,7.98417,0,0,1,5.41993-1.90429h32.71484q4.98046,0,8.20312.19531,3.22266.197,5.85938.48828a53.28222,53.28222,0,0,1,13.7207,3.71094,32.89878,32.89878,0,0,1,10.35157,6.88476,28.66992,28.66992,0,0,1,6.49414,10.0586,36.80141,36.80141,0,0,1,2.24609,13.33007,39.1379,39.1379,0,0,1-1.61133,11.57227,29.66993,29.66993,0,0,1-4.73633,9.32617,31.15061,31.15061,0,0,1-7.71484,7.12891,41.73821,41.73821,0,0,1-10.44922,4.8833,29.16686,29.16686,0,0,1,5.32227,3.32031,28.12983,28.12983,0,0,1,4.6875,4.73633,45.61838,45.61838,0,0,1,4.15039,6.34766,82.09611,82.09611,0,0,1,3.80859,8.05664l10.64453,24.90234q1.46484,3.71191,1.95313,5.41992A10.49606,10.49606,0,0,1,236.54883,194.10254Zm-33.10547-85.74268a18.75856,18.75856,0,0,0-2.832-10.54687q-2.833-4.29639-9.27735-6.05469a35.67224,35.67224,0,0,0-4.44335-.78125,62.39479,62.39479,0,0,0-6.88477-.293H168.48242v35.83985h13.08594a31.33792,31.33792,0,0,0,9.57031-1.31836,19.09821,19.09821,0,0,0,6.83594-3.71094,15.18818,15.18818,0,0,0,4.10156-5.71289A19.32755,19.32755,0,0,0,203.44336,108.35986Z" transform="translate(1 1)"/>
  </g>
</svg>
